<mxfile host="app.diagrams.net" modified="2023-12-14T15:28:30.407Z" agent="Mozilla/5.0 (Windows NT 10.0; Win64; x64) AppleWebKit/537.36 (KHTML, like Gecko) Chrome/120.0.0.0 Safari/537.36" version="22.1.8" etag="UXc7dP74vlI2T9a6G86h" type="github">
  <diagram name="Page-1" id="GIW788SQWkKkHtVMfm3c">
    <mxGraphModel>
      <root>
        <mxCell id="0" />
        <mxCell id="1" parent="0" />
      </root>
    </mxGraphModel>
  </diagram>
</mxfile>
